<svg xmlns="http://www.w3.org/2000/svg" width="48" height="48" fill="none" viewBox="0 0 48 48" id="html"><path fill="#fff" d="M0 24C0 10.7452 10.7452 0 24 0C37.2548 0 48 10.7452 48 24C48 37.2548 37.2548 48 24 48C10.7452 48 0 37.2548 0 24Z"></path><path fill="#E44D26" d="M13.5171 37.121L11.2 11.2H36.6609L34.3413 37.1169L23.9149 40L13.5171 37.121Z"></path><path fill="#F16529" d="M23.9304 37.7044L32.3778 35.3804L34.3652 13.287H23.9304V37.7044Z"></path><path fill="#EBEBEB" d="M23.9304 22.8428H19.7454L19.4564 19.592H23.9304V16.4174H23.9195 16L16.0757 17.2691 16.853 26.0174H23.9304V22.8428zM23.9304 31.2197L23.9167 31.2235 20.4194 30.2551 20.1958 27.687H18.4964 17.0435L17.4834 32.7429 23.916 34.574 23.9304 34.5699V31.2197z"></path><path fill="#fff" d="M23.9304 22.887V26.0991H27.7999L27.4351 30.2651 23.9304 31.232V34.5739L30.3724 32.7488 30.4197 32.2062 31.1581 23.7495 31.2348 22.887H30.388 23.9304zM23.9304 16.4174V18.3616 19.5401 19.5478H31.5672V19.5478H31.5774L31.6409 18.8442 31.7852 17.2572 31.8609 16.4174H23.9304z"></path></svg>